<svg viewBox="0 0 100277 100232" xmlns="http://www.w3.org/2000/svg">
        <path d="M98310 50345 L98310 51560 L98028 51560 L98028 52780 L98038 52780 L98038 53970 L97634 53970 L97634 55194 L97694 55194 L97694 56343 L97114 56343 L97114 57685 L97879 57685 L97879 58863 L97495 58863 L97495 60097 L97410 60097 L97410 61168 L96613 61168 L96613 62285 L96087 62285 L96087 63430 L95699 63430 L95699 64793 L95995 64793 L95995 65808 L95190 65808 L95190 66917 L94694 66917 L94694 68153 L94520 68153 L94520 69172 L93810 69172 L93810 70410 L93597 70410 L93597 71506 L93063 71506 L93063 72446 L92233 72446 L92233 73836 L92230 73836 L92230 74437 L90842 74437 L90842 75817 L90767 75817 L90767 76624 L89776 76624 L89776 77925 L89516 77925 L89516 78486 L88217 78486 L88217 79838 L87983 79838 L87983 80404 L86749 80404 L86749 81753 L86457 81753 L86457 82327 L85271 82327 L85271 83112 L84339 83112 L84339 84218 L83732 84218 L83732 84834 L82642 84834 L82642 86184 L82224 86184 L82224 86419 L80815 86419 L80815 87491 L80126 87491 L80126 87866 L78880 87866 L78880 88909 L78145 88909 L78145 89864 L77325 89864 L77325 90013 L75962 90013 L75962 90663 L74943 90663 L74943 91665 L74127 91665 L74127 92245 L73054 92245 L73054 92632 L71882 92632 L71882 92835 L70633 92835 L70633 94212 L69932 94212 L69932 94172 L68583 94172 L68583 94310 L67333 94310 L67333 95560 L66504 95560 L66504 95355 L65141 95355 L65141 95571 L63940 95571 L63940 96246 L62875 96246 L62875 96975 L61804 96975 L61804 96549 L60451 96549 L60451 97124 L59333 97124 L59333 96931 L58065 96931 L58065 97424 L56918 97424 L56918 98073 L55773 98073 L55773 97895 L54524 97895 L54524 97556 L53279 97556 L53279 98047 L52092 98047 L52092 98056 L50874 98056 L50874 98239 L49655 98239 L49655 97873 L48444 97873 L48444 98139 L47213 98139 L47213 98266 L45977 98266 L45977 98161 L44754 98161 L44754 97803 L43564 97803 L43564 97342 L42400 97342 L42400 97198 L41191 97198 L41191 97168 L39954 97168 L39954 96421 L38877 96421 L38877 96193 L37686 96193 L37686 96440 L36351 96440 L36351 95806 L35267 95806 L35267 95172 L34198 95172 L34198 94892 L33007 94892 L33007 94050 L32037 94050 L32037 93691 L30879 93691 L30879 93656 L29561 93656 L29561 93344 L28352 93344 L28352 92486 L27418 92486 L27418 91795 L26408 91795 L26408 91114 L25399 91114 L25399 90860 L24123 90860 L24123 89744 L23396 89744 L23396 88866 L22533 88866 L22533 88246 L21491 88246 L21491 88137 L20040 88137 L20040 86756 L19588 86756 L19588 86100 L18557 86100 L18557 85394 L17559 85394 L17559 84455 L16774 84455 L16774 83868 L15643 83868 L15643 83135 L14639 83135 L14639 81809 L14281 81809 L14281 80997 L13365 80997 L13365 80297 L12295 80297 L12295 79332 L11540 79332 L11540 78381 L10764 78381 L10764 77410 L10010 77410 L10010 76167 L9670 76167 L9670 75301 L8752 75301 L8752 73978 L8591 73978 L8591 73070 L7725 73070 L7725 71976 L7185 71976 L7185 70992 L6418 70992 L6418 69862 L5943 69862 L5943 68457 L6125 68457 L6125 67420 L5467 67420 L5467 66462 L4555 66462 L4555 65053 L4909 65053 L4909 64154 L3729 64154 L3729 62836 L3894 62836 L3894 61743 L3268 61743 L3268 60481 L3319 60481 L3319 59319 L2945 59319 L2945 58207 L2240 58207 L2240 56983 L2130 56983 L2130 55722 L2353 55722 L2353 54541 L1931 54541 L1931 53300 L2146 53300 L2146 52078 L2265 52078 L2265 50877 L1742 50877 L1742 50319 L94651 50319 L94651 48450 L2321 48450 L2321 47206 L1732 47206 L1732 46042 L2516 46042 L2516 44813 L2377 44813 L2377 43626 L2658 43626 L2658 42360 L2409 42360 L2409 41284 L3296 41284 L3296 39914 L2641 39914 L2641 38778 L3164 38778 L3164 37648 L3661 37648 L3661 36388 L3684 36388 L3684 35155 L3843 35155 L3843 34172 L4754 34172 L4754 33136 L5447 33136 L5447 31768 L5289 31768 L5289 30736 L5982 30736 L5982 29507 L6228 29507 L6228 28717 L7386 28717 L7386 27424 L7524 27424 L7524 26409 L8205 26409 L8205 25147 L8464 25147 L8464 24254 L9346 24254 L9346 23289 L10096 23289 L10096 22516 L11108 22516 L11108 21135 L11274 21135 L11274 20223 L12094 20223 L12094 19338 L12941 19338 L12941 18459 L13787 18459 L13787 17587 L14636 17587 L14636 16530 L15290 16530 L15290 15932 L16416 15932 L16416 14754 L16973 14754 L16973 13825 L17784 13825 L17784 13107 L18784 13107 L18784 12336 L19735 12336 L19735 12209 L21177 12209 L21177 10929 L21737 10929 L21737 10796 L23127 10796 L23127 9396 L23654 9396 L23654 8692 L24661 8692 L24661 8642 L26050 8642 L26050 7899 L27024 7899 L27024 7305 L28085 7305 L28085 7017 L29296 7017 L29296 6512 L30393 6512 L30393 5491 L31275 5491 L31275 5372 L32542 5372 L32542 5231 L33782 5231 L33782 4619 L34850 4619 L34850 4569 L36102 4569 L36102 3574 L37074 3574 L37074 3221 L38244 3221 L38244 3590 L39579 3590 L39579 2490 L40590 2490 L40590 3086 L41937 3086 L41937 2138 L43017 2138 L43017 2492 L44294 2492 L44294 2396 L45502 2396 L45502 2574 L46729 2574 L46729 2277 L47921 2277 L47921 2284 L49132 2284 L49132 1948 L50343 1948 L50343 1748 L51568 1748 L51568 1959 L52780 1959 L52780 2454 L53962 2454 L53962 2618 L55160 2618 L55160 2473 L56398 2473 L56398 2723 L57588 2723 L57588 2805 L58807 2805 L58807 3175 L59972 3175 L59972 3369 L61172 3369 L61172 3562 L62378 3562 L62378 4246 L63446 4246 L63446 4614 L64597 4614 L64597 4889 L65780 4889 L65780 4721 L67138 4721 L67138 5144 L68290 5144 L68290 5808 L69339 5808 L69339 6415 L70404 6415 L70404 6945 L71502 6945 L71502 7899 L72376 7899 L72376 8486 L73431 8486 L73431 8983 L74541 8983 L74541 9061 L75925 9061 L75925 10526 L76422 10526 L76422 11171 L77439 11171 L77439 11363 L78799 11363 L78799 11994 L79855 11994 L79855 13330 L80339 13330 L80339 13538 L81756 13538 L81756 14950 L82124 14950 L82124 15228 L83529 15228 L83529 15991 L84497 15991 L84497 16930 L85290 16930 L85290 17789 L86168 17789 L86168 18819 L86850 18819 L86850 19630 L87793 19630 L87793 20709 L88404 20709 L88404 21979 L88735 21979 L88735 23101 L89241 23101 L89241 24070 L89962 24070 L89962 25058 L90660 25058 L90660 25810 L91771 25810 L91771 26889 L92347 26889 L92347 28234 L92404 28234 L92404 29198 L93184 29198 L93184 30213 L93887 30213 L93887 31201 L94685 31201 L94685 32652 L94345 32652 L94345 33528 L95470 33528 L95470 34844 L95397 34844 L95397 35836 L96299 35836 L96299 37077 L96414 37077 L96414 38238 L96801 38238 L96801 39557 L96508 39557 L96508 40693 L96988 40693 L96988 41939 L96899 41939 L96899 43137 L97038 43137 L97038 44302 L97437 44302 L97437 45514 L97480 45514 L97480 46678 L98166 46678 L98166 47929 L97555 47929 L97555 49132 L97674 49132 L97674 50345 Z"
            style="fill:green;" />
        <path d="M5467 50319 L94651 50319 L94651 67420 L5467 67420 Z"
            style="fill:red;fill-opacity:0.8" />
    </svg> 